<?xml version="1.0" encoding="UTF-8" standalone="no"?>
<svg
   width="1535.4255"
   height="1535.4347"
   viewBox="0 0 1535.4255 1535.4347"
   version="1.1"
   xml:space="preserve"
   style="clip-rule:evenodd;fill-rule:evenodd;stroke-linejoin:round;stroke-miterlimit:2"
   id="svg16"
   sodipodi:docname="CHCH - logo - str..svg"
   inkscape:version="1.4.2 (ebf0e94, 2025-05-08)"
   xmlns:inkscape="http://www.inkscape.org/namespaces/inkscape"
   xmlns:sodipodi="http://sodipodi.sourceforge.net/DTD/sodipodi-0.dtd"
   xmlns="http://www.w3.org/2000/svg"
   xmlns:svg="http://www.w3.org/2000/svg"
   xmlns:serif="http://www.serif.com/"><defs
   id="defs16" /><sodipodi:namedview
   id="namedview16"
   pagecolor="#ffffff"
   bordercolor="#000000"
   borderopacity="0.25"
   inkscape:showpageshadow="2"
   inkscape:pageopacity="0.0"
   inkscape:pagecheckerboard="0"
   inkscape:deskcolor="#d1d1d1"
   inkscape:zoom="0.52822121"
   inkscape:cx="791.33513"
   inkscape:cy="792.28171"
   inkscape:window-width="3840"
   inkscape:window-height="2071"
   inkscape:window-x="-9"
   inkscape:window-y="-9"
   inkscape:window-maximized="1"
   inkscape:current-layer="NA-střed-bolt-Ch" />
    <g
   transform="translate(-449.57729,-2853.6129)"
   id="g16">
        <g
   id="Artboard3"
   transform="matrix(0.602461,0,0,0.549085,4822.57,1643.64)">
            
            <g
   id="NA-střed-bolt-Ch"
   serif:id="NA střed bolt Ch"
   transform="matrix(13.9038,0,0,15.585,-1286.37,-12654.1)">
                <g
   transform="matrix(0.157063,0,0,0.153742,-514.185,798.473)"
   id="g1">
                    <circle
   cx="1122.48"
   cy="1590.8101"
   r="583.52899"
   id="circle1" />
                </g>
                
                <g
   transform="matrix(0.0210461,0,0,0.11601,-443.751,884.452)"
   id="g9">
                    <rect
   x="767.82202"
   y="1350.71"
   width="1050.8101"
   height="32.737"
   style="fill:#ffffff;fill-rule:nonzero"
   id="rect8" />
                </g>
                <g
   transform="matrix(0.0168828,0,0,0.11601,-281.29,884.452)"
   id="g10">
                    <rect
   x="638.25897"
   y="1350.71"
   width="1309.9301"
   height="32.737"
   style="fill:#ffffff;fill-rule:nonzero"
   id="rect9" />
                </g>
                <g
   transform="matrix(0.0210461,0,0,0.11601,-311.546,886.123)"
   id="g11">
                    <path
   d="M 1591.32,1228.43 H 1859 v 252.08 H 1591.32 V 1374.28 H 995.129 v 106.23 h -267.68 v -252.08 h 267.68 v 102.99 h 596.191 z"
   style="fill:#ffffff;fill-rule:nonzero"
   id="path10" />
                </g>
                <g
   transform="matrix(0.0210461,0,0,0.11601,-339.042,886.123)"
   id="g12">
                    <path
   d="m 1975.61,1399.49 c -22.99,26.4 -94.3,47.11 -213.94,62.11 -119.65,15.01 -263.97,22.51 -432.96,22.51 -213.6,0 -383.264,-12 -508.993,-36.01 -125.728,-24.01 -188.592,-54.86 -188.592,-92.55 0,-38.41 64.216,-69.8 192.648,-94.17 128.432,-24.36 296.747,-36.55 504.937,-36.55 164.94,0 304.19,7.56 417.75,22.69 113.56,15.12 182.51,36.25 206.84,63.38 h -287.96 c -22.98,-13.21 -63.54,-23.53 -121.67,-30.97 -58.13,-7.44 -129.79,-11.16 -214.96,-11.16 -125.72,0 -227.79,8.28 -306.21,24.84 -78.406,16.57 -117.612,37.22 -117.612,61.94 0,24.97 40.22,45.32 120.662,61.04 80.44,15.73 181.49,23.59 303.16,23.59 90.58,0 167.3,-3.66 230.17,-10.99 62.86,-7.32 105.79,-17.22 128.77,-29.7 z"
   style="fill:#ffffff;fill-rule:nonzero"
   id="path11" />
                </g>
                <g
   transform="matrix(0.0210461,0,0,0.11601,-364.491,883.541)"
   id="g13">
                    <path
   d="m 859.077,1322.23 h 866.453 v 35.68 H 859.077 Z m 0,74.31 h 866.453 v 35.35 H 859.077 Z"
   style="fill:#ffffff;fill-rule:nonzero"
   id="path12" />
                </g>
                <g
   transform="matrix(0.0210461,0,0,0.11601,-388.802,886.123)"
   id="g14">
                    <path
   d="M 1591.32,1228.43 H 1859 v 252.08 H 1591.32 V 1374.28 H 995.129 v 106.23 h -267.68 v -252.08 h 267.68 v 102.99 h 596.191 z"
   style="fill:#ffffff;fill-rule:nonzero"
   id="path13" />
                </g>
                <g
   transform="matrix(0.0210461,0,0,0.11601,-416.27,886.123)"
   id="g15">
                    <path
   d="m 1975.61,1399.49 c -22.99,26.4 -94.3,47.11 -213.94,62.11 -119.65,15.01 -263.97,22.51 -432.96,22.51 -213.6,0 -383.264,-12 -508.993,-36.01 -125.728,-24.01 -188.592,-54.86 -188.592,-92.55 0,-38.41 64.216,-69.8 192.648,-94.17 128.432,-24.36 296.747,-36.55 504.937,-36.55 164.94,0 304.19,7.56 417.75,22.69 113.56,15.12 182.51,36.25 206.84,63.38 h -287.96 c -22.98,-13.21 -63.54,-23.53 -121.67,-30.97 -58.13,-7.44 -129.79,-11.16 -214.96,-11.16 -125.72,0 -227.79,8.28 -306.21,24.84 -78.406,16.57 -117.612,37.22 -117.612,61.94 0,24.97 40.22,45.32 120.662,61.04 80.44,15.73 181.49,23.59 303.16,23.59 90.58,0 167.3,-3.66 230.17,-10.99 62.86,-7.32 105.79,-17.22 128.77,-29.7 z"
   style="fill:#ffffff;fill-rule:nonzero"
   id="path14" />
                </g>
            </g>
        </g>
    </g>
</svg>
